<?xml version="1.0" encoding="utf-8"?>
<!-- Generator: Adobe Illustrator 16.0.0, SVG Export Plug-In . SVG Version: 6.00 Build 0)  -->
<!DOCTYPE svg PUBLIC "-//W3C//DTD SVG 1.1//EN" "http://www.w3.org/Graphics/SVG/1.1/DTD/svg11.dtd">
<svg version="1.1" id="Layer_1" xmlns="http://www.w3.org/2000/svg" xmlns:xlink="http://www.w3.org/1999/xlink" x="0px" y="0px"
	 width="781.5px" height="212.605px" viewBox="0 0 781.5 212.605" enable-background="new 0 0 781.5 212.605" xml:space="preserve">
<g>
	<g>
		<g>
			<polygon fill="#FFFFFF" points="115.755,130.549 91.562,130.549 88.7,127.848 86.752,129.911 90.436,133.385 116.483,133.385 
				121.023,130.889 119.658,128.403 			"/>
			<rect x="96.856" y="135.051" fill="#FFFFFF" width="12.54" height="2.837"/>
			<path fill="#FFFFFF" d="M158.604,101.897l-1.245-11.092l-0.896-1.566l30.68-58.087H146.75l-0.902,3.779h35.023l-26.633,50.424
				l-1.927-3.367l1.953-4.128l-10.771-32.73l-0.068-0.044l0,0l4.546-19.05l-17.139-7l-11.104,11.757h-0.001H86.714l0,0
				L75.611,19.036l-17.138,7l1.221,5.117H15.573L49.059,94.55l-2.515,7.595l1.668,10.544l3.042-1.321l-0.001,0.001l-2.877,5.028
				l-1.245,11.092l3.81,9.973l9.78-6.948l0.239-1.369l14.038,14.521l26.361,49.908l24.127-45.682l18.536-14.9l-0.095-3.611v0.001
				l8.484,6.026l3.81-9.971l-1.246-11.096l-2.256-3.939l2.074,1.474L158.604,101.897z M153.453,107.438l-5.844-4.155l-1.446-8.295
				l1.598-3.377l2.307,8.559l2.738-0.735L149.63,87.66l1.204-2.544l3.772,6.591l1.103,9.824L153.453,107.438z M131.253,106.102
				l-5.035-2.35l1.787-1.979l10.031,0.447L131.253,106.102z M107.274,116.223l-3.498,3.494l-3.498-3.494H107.274z M103.165,105.057
				l7.916,8.276l-15.637,0.043L103.165,105.057z M103.133,100.921l-6.961-7.278h13.717L103.133,100.921z M105.097,102.975
				l11.292-12.17h-26.85l11.663,12.196l-8.976,9.672l-11.41-13.293l10.358-30.722l23.999-0.278l10.621,31.613l-11.435,12.667
				L105.097,102.975z M75.549,105.498l-6.214-3.553h9.886l0.083,0.028l1.088,1.268L75.549,105.498z M65.808,46.543l5.973-3.726
				l0.747,23.792l-15.354,8.271L65.808,46.543z M70.874,33.113l4.155-1.735l3.177,4.089l-6.657,4.152L70.874,33.113z
				 M136.781,33.894l-0.668,6.438l-6.536-4.249l3.048-3.924L136.781,33.894z M150.903,78.335L140.886,99.51l-12.449-0.556
				l-5.661-16.848l11.339-13.534L150.903,78.335z M132.068,41.085l0.292,24.265l-15.157,0.175l-10.716-31.896h14.108L132.068,41.085
				z M103.498,33.628l10.727,31.932l-22.089,0.255l10.851-32.188L103.498,33.628L103.498,33.628z M86.511,33.628h13.484
				L89.13,65.848l-13.786,0.157L74.562,41.08L86.511,33.628z M73.593,69.255l10.065,12.824L77.916,99.11H65.164l-8.551-20.704
				L73.593,69.255z M150.228,74.663l-15.025-8.736l-0.277-22.981l6.187,4.021L150.228,74.663z M131.561,22.396l13.089,5.347
				l-3.748,15.703l-2.119-1.377l1.035-9.979l-8.103-3.381l-4.526,5.825l-4.395-2.855L131.561,22.396z M74.886,22.396l8.999,9.526
				l-3.26,2.034l-4.686-6.032l-8.103,3.385l1.036,9.979l-3.344,2.085l-3.73-15.633L74.886,22.396z M21.843,34.931h38.754
				l2.54,10.646l0,0l-9.828,32.259l2.838,6.871l-6.094,6.84l1.063-1.19L21.843,34.931z M49.453,102.38l3.108-9.385l4.79-5.375
				l0.967,2.342l-5.59,10.965l2.527,1.288l4.487-8.804l1.163,2.816l-3.883,9.542l-6.581,2.856L49.453,102.38z M52.283,133.028
				l-2.257-5.91l1.103-9.823l4.473-7.814l1.696-0.736l-4.369,16.281l2.739,0.731l6.467-24.104l-0.339-0.091l0.652-1.604l0.305,0.739
				l-3.084,19.438l-0.02-0.003l-1.521,8.74L52.283,133.028z M101.358,185.475L84.42,153.408l5.067,5.241h22.611l5.958-4.789
				L101.358,185.475z M111.102,155.813H90.69l-29.044-30.045l3.63-22.878l8.789,5.023v13.812H76.9v-13.729l5.411-2.521l7.974,9.292
				l-1.358,1.463l7.331-0.021l7.519,7.521l7.559-7.561l3.684-0.01l0,0l2.677-0.007l-1.374-1.438l7.907-8.76l5.476,2.551v13.611
				h2.835V108.63l7.886-4.509l0.723,27.536L111.102,155.813z M151.069,130.971l-5.844-4.154l-1.522-8.738l-0.071,0.012
				l-0.276-10.521l4.329,16.134l2.739-0.736l-4.708-17.547l1.672,1.188l-0.078,0.044l4.915,8.587l1.103,9.825L151.069,130.971z"/>
			<rect x="100.082" y="139.571" fill="#FFFFFF" width="5.468" height="2.836"/>
		</g>
	</g>
</g>
<g>
	<g>
		<g enable-background="new    ">
			<path fill="#FFFFFF" d="M240.139,88.297l4.299,4.298c-4.725,4.725-11.004,7.327-17.682,7.327c-6.678,0-12.958-2.603-17.682-7.327
				s-7.327-11.003-7.327-17.682c0-6.678,2.602-12.957,7.327-17.682s11.004-7.326,17.682-7.326c6.678,0,12.957,2.602,17.682,7.326
				l-4.299,4.299c-3.576-3.575-8.327-5.542-13.383-5.542c-5.056,0-9.808,1.967-13.383,5.542c-3.576,3.576-5.542,8.327-5.542,13.383
				s1.967,9.808,5.542,13.383c3.576,3.576,8.327,5.543,13.383,5.543C231.812,93.839,236.563,91.872,240.139,88.297L240.139,88.297z"
				/>
			<path fill="#FFFFFF" d="M297.364,57.229c4.525,4.525,7.325,10.778,7.325,17.684c0,6.906-2.799,13.158-7.325,17.684
				c-4.526,4.526-10.778,7.325-17.684,7.325c-6.906,0-13.158-2.799-17.684-7.325c-4.525-4.525-7.325-10.777-7.325-17.684
				c0-6.905,2.799-13.158,7.325-17.684c4.526-4.525,10.778-7.324,17.684-7.324C286.586,49.905,292.838,52.704,297.364,57.229z
				 M293.062,88.296c3.575-3.575,5.543-8.327,5.543-13.383c0-5.055-1.969-9.808-5.543-13.382c-3.575-3.574-8.327-5.543-13.382-5.543
				s-9.808,1.969-13.382,5.543c-3.575,3.574-5.543,8.327-5.543,13.382c0,5.056,1.969,9.808,5.543,13.383
				c3.574,3.574,8.327,5.543,13.382,5.543S289.488,91.87,293.062,88.296z M283.982,74.913l-4.301,4.302l-4.302-4.302l4.302-4.301
				L283.982,74.913z"/>
			<path fill="#FFFFFF" d="M363.562,50.581v48.665h-6.083V59.82l-18.25,20.852l-18.25-20.852v39.426h-6.083V50.581h6.083
				l18.25,20.858l18.25-20.858H363.562z"/>
			<path fill="#FFFFFF" d="M422.473,50.581v48.665h-6.084V59.82L398.14,80.672L379.89,59.82v39.426h-6.083V50.581h6.083
				l18.25,20.858l18.249-20.858H422.473z"/>
			<path fill="#FFFFFF" d="M475.41,57.229c4.525,4.525,7.324,10.778,7.324,17.684c0,6.906-2.799,13.158-7.324,17.684
				c-4.526,4.526-10.778,7.325-17.684,7.325c-6.906,0-13.158-2.799-17.685-7.325c-4.525-4.525-7.325-10.777-7.325-17.684
				c0-6.905,2.8-13.158,7.325-17.684c4.526-4.525,10.778-7.324,17.685-7.324C464.632,49.905,470.884,52.704,475.41,57.229z
				 M471.107,88.296c3.575-3.575,5.544-8.327,5.544-13.383c0-5.055-1.969-9.808-5.543-13.382c-3.575-3.574-8.327-5.543-13.382-5.543
				c-5.056,0-9.809,1.969-13.383,5.543s-5.543,8.327-5.543,13.382c0,5.056,1.969,9.808,5.543,13.383
				c3.574,3.574,8.327,5.543,13.383,5.543C462.781,93.839,467.533,91.87,471.107,88.296z M462.027,74.913l-4.301,4.302l-4.303-4.302
				l4.303-4.301L462.027,74.913z"/>
			<path fill="#FFFFFF" d="M529.441,99.246h-6.084V87.627L499.025,59.82v39.426h-6.083V50.581h6.083l24.332,27.807V50.581h6.084
				V99.246z"/>
			<path fill="#FFFFFF" d="M569.449,95.238c-2.588,2.582-6.021,4.008-9.678,4.008h-18.588v-6.083h18.588
				c2.027,0,3.939-0.791,5.379-2.23c1.434-1.434,2.225-3.339,2.225-5.374c0-2.027-0.791-3.94-2.23-5.373
				c-1.434-1.439-3.346-2.23-5.373-2.23h-6.422c-3.656,0-7.09-1.426-9.68-4.008c-2.582-2.582-4.008-6.022-4.008-9.68
				c0-3.656,1.426-7.09,4.008-9.679c2.59-2.582,6.023-4.008,9.68-4.008h17.066v6.083H553.35c-2.027,0-3.939,0.791-5.373,2.23
				c-1.439,1.433-2.23,3.346-2.23,5.373c0,2.035,0.791,3.94,2.223,5.374c1.441,1.439,3.354,2.23,5.381,2.23h6.422
				c3.656,0,7.09,1.426,9.678,4.008c2.582,2.589,4.008,6.022,4.008,9.679C573.457,89.216,572.031,92.656,569.449,95.238z"/>
			<path fill="#FFFFFF" d="M589.764,68.83h21.629v6.083h-21.629v18.25h27.713v6.083h-33.795V50.581h33.795v6.083h-27.713V68.83z"/>
			<path fill="#FFFFFF" d="M664.199,99.246h-6.084V87.627L633.783,59.82v39.426h-6.084V50.581h6.084l24.332,27.807V50.581h6.084
				V99.246z"/>
			<path fill="#FFFFFF" d="M704.207,95.238c-2.59,2.582-6.023,4.008-9.68,4.008h-18.588v-6.083h18.588
				c2.027,0,3.941-0.791,5.381-2.23c1.434-1.434,2.223-3.339,2.223-5.374c0-2.027-0.789-3.94-2.23-5.373
				c-1.432-1.439-3.346-2.23-5.373-2.23h-6.42c-3.658,0-7.092-1.426-9.68-4.008c-2.582-2.582-4.008-6.022-4.008-9.68
				c0-3.656,1.426-7.09,4.008-9.679c2.588-2.582,6.021-4.008,9.68-4.008h17.066v6.083h-17.066c-2.029,0-3.941,0.791-5.375,2.23
				c-1.439,1.433-2.23,3.346-2.23,5.373c0,2.035,0.791,3.94,2.225,5.374c1.439,1.439,3.352,2.23,5.381,2.23h6.42
				c3.656,0,7.09,1.426,9.68,4.008c2.582,2.589,4.008,6.022,4.008,9.679C708.215,89.216,706.789,92.656,704.207,95.238z"/>
			<path fill="#FFFFFF" d="M724.521,68.83h21.629v6.083h-21.629v18.25h27.713v6.083h-33.795V50.581h33.795v6.083h-27.713V68.83z"/>
		</g>
	</g>
	<g enable-background="new    ">
		<path fill="#FFFFFF" d="M224.25,131.528c0,2.314-0.903,4.492-2.539,6.128c-1.636,1.637-3.813,2.539-6.128,2.539H208v8.667h-3.25
			v-26.001h10.834c2.314,0,4.492,0.902,6.128,2.539C223.348,127.036,224.25,129.214,224.25,131.528z M221,131.528
			c0-1.448-0.563-2.806-1.585-3.831c-1.025-1.022-2.383-1.586-3.831-1.586H208v10.834h7.584c1.448,0,2.806-0.563,3.831-1.586
			C220.437,134.334,221,132.976,221,131.528z"/>
		<path fill="#FFFFFF" d="M263.517,126.414c2.418,2.418,3.914,5.758,3.914,9.448c0,3.689-1.496,7.029-3.914,9.447
			s-5.758,3.914-9.448,3.914c-3.69,0-7.03-1.496-9.448-3.914s-3.914-5.758-3.914-9.447c0-3.69,1.496-7.03,3.914-9.448
			s5.758-3.914,9.448-3.914C257.759,122.5,261.099,123.996,263.517,126.414z M261.219,143.011c1.91-1.91,2.961-4.449,2.961-7.149
			c0-2.701-1.052-5.24-2.961-7.15c-1.91-1.91-4.449-2.962-7.15-2.962c-2.701,0-5.24,1.052-7.15,2.962
			c-1.91,1.91-2.962,4.449-2.962,7.15c0,2.7,1.052,5.239,2.962,7.149c1.91,1.91,4.449,2.962,7.15,2.962
			C256.77,145.973,259.309,144.922,261.219,143.011z M256.367,135.862l-2.298,2.298l-2.298-2.298l2.298-2.299L256.367,135.862z"/>
		<path fill="#FFFFFF" d="M319.321,122.861l-8.125,26.001h-3.25l-6.345-20.303l-6.345,20.303h-3.25l-8.125-26.001h3.405
			l6.345,20.306l6.345-20.306h3.25l6.345,20.306l6.345-20.306H319.321z"/>
		<path fill="#FFFFFF" d="M339.039,132.611h11.556v3.251h-11.556v9.75h14.806v3.25h-18.056v-26.001h18.056v3.25h-14.806V132.611z"/>
		<path fill="#FFFFFF" d="M384.07,139.686l5.735,9.176h-3.832l-5.417-8.667h-7.002v8.667h-3.25v-26.001h10.834
			c2.314,0,4.492,0.902,6.128,2.539c1.636,1.636,2.539,3.813,2.539,6.128s-0.903,4.492-2.539,6.128
			C386.349,138.574,385.258,139.263,384.07,139.686z M381.138,136.945c1.448,0,2.806-0.563,3.831-1.586
			c1.022-1.025,1.585-2.383,1.585-3.831s-0.563-2.806-1.585-3.831c-1.025-1.022-2.383-1.586-3.831-1.586h-7.584v10.834H381.138z"/>
		<path fill="#FFFFFF" d="M454.232,141.55c0,2.019-0.819,3.846-2.141,5.171c-1.326,1.322-3.153,2.142-5.172,2.142h-12.188v-26.001
			h10.021c2.019,0,3.847,0.819,5.171,2.142c1.322,1.325,2.143,3.152,2.143,5.171c0,1.863-0.697,3.561-1.842,4.854
			c0.693,0.351,1.324,0.81,1.867,1.351C453.413,137.703,454.232,139.531,454.232,141.55z M437.982,134.236h6.771
			c1.087,0,2.105-0.422,2.871-1.191c0.769-0.766,1.192-1.784,1.192-2.871s-0.424-2.105-1.192-2.871
			c-0.766-0.769-1.784-1.191-2.871-1.191h-6.771V134.236z M450.982,141.55c0-1.087-0.422-2.105-1.191-2.871
			c-0.766-0.77-1.784-1.191-2.871-1.191h-8.938v8.125h8.938c1.087,0,2.105-0.423,2.871-1.191
			C450.561,143.655,450.982,142.636,450.982,141.55z"/>
		<path fill="#FFFFFF" d="M494.523,122.861l-10.291,14.626v11.375h-3.25v-11.375l-10.293-14.626h3.977l7.941,11.289l7.941-11.289
			H494.523z"/>
		<path fill="#FFFFFF" d="M558.947,131.528c0,2.314-0.902,4.492-2.539,6.128c-1.635,1.637-3.812,2.539-6.127,2.539h-7.584v8.667
			h-3.25v-26.001h10.834c2.314,0,4.492,0.902,6.127,2.539C558.045,127.036,558.947,129.214,558.947,131.528z M555.697,131.528
			c0-1.448-0.562-2.806-1.586-3.831c-1.025-1.022-2.383-1.586-3.83-1.586h-7.584v10.834h7.584c1.447,0,2.805-0.563,3.83-1.586
			C555.135,134.334,555.697,132.976,555.697,131.528z"/>
		<path fill="#FFFFFF" d="M578.654,132.611h11.557v3.251h-11.557v9.75h14.807v3.25h-18.057v-26.001h18.057v3.25h-14.807V132.611z"/>
		<path fill="#FFFFFF" d="M632.729,126.414c2.418,2.418,3.914,5.758,3.914,9.448c0,3.689-1.496,7.029-3.914,9.447
			s-5.758,3.914-9.447,3.914s-7.031-1.496-9.449-3.914s-3.912-5.758-3.912-9.447c0-3.69,1.494-7.03,3.912-9.448
			s5.76-3.914,9.449-3.914S630.311,123.996,632.729,126.414z M630.432,143.011c1.908-1.91,2.961-4.449,2.961-7.149
			c0-2.701-1.053-5.24-2.961-7.15c-1.91-1.91-4.449-2.962-7.15-2.962s-5.24,1.052-7.15,2.962s-2.961,4.449-2.961,7.15
			c0,2.7,1.051,5.239,2.961,7.149s4.449,2.962,7.15,2.962S628.521,144.922,630.432,143.011z M625.58,135.862l-2.299,2.298
			l-2.299-2.298l2.299-2.299L625.58,135.862z"/>
		<path fill="#FFFFFF" d="M672.594,131.528c0,2.314-0.904,4.492-2.539,6.128c-1.637,1.637-3.814,2.539-6.129,2.539h-7.584v8.667
			h-3.25v-26.001h10.834c2.314,0,4.492,0.902,6.129,2.539C671.689,127.036,672.594,129.214,672.594,131.528z M669.344,131.528
			c0-1.448-0.564-2.806-1.586-3.831c-1.025-1.022-2.383-1.586-3.832-1.586h-7.584v10.834h7.584c1.449,0,2.807-0.563,3.832-1.586
			C668.779,134.334,669.344,132.976,669.344,131.528z"/>
		<path fill="#FFFFFF" d="M689.051,148.862v-26.001h3.25v22.751h14.807v3.25H689.051z"/>
		<path fill="#FFFFFF" d="M726.814,132.611h11.557v3.251h-11.557v9.75h14.807v3.25h-18.057v-26.001h18.057v3.25h-14.807V132.611z"/>
	</g>
</g>
</svg>
